# xmcd
#
# Track frame offsets: 
#        151
#        17246
#        33601
#        49672
#        67522
#        84024
#        103598
#        118328
#        135385
#        158063
#        172697
#        191280
#        212311
#
# Disc length: 3073 seconds
#
# Revision: 0
# Processed by: cddbd v1.5.2PL0 Copyright (c) Steve Scherf et al.
# Submitted via: ExactAudioCopy v0.95b4
#
DISCID=930bff0d
DTITLE=金伶 - 聲醉絕伶
DYEAR=2006
DGENRE=Vocal
TTITLE0=斯卡布羅市集（英文）
TTITLE1=眼淚\成詩
TTITLE2=生日禮物
TTITLE3=筆記
TTITLE4=寂寞沙洲冷
TTITLE5=大哥（粵語）
TTITLE6=遇見 英文版
TTITLE7=彼著羊皮的野狼
TTITLE8=安靜
TTITLE9=揮著翅膀的女孩
TTITLE10=我不後悔
TTITLE11=愛了點傷
TTITLE12=如果愛
EXTD=
EXTT0=
EXTT1=
EXTT2=
EXTT3=
EXTT4=
EXTT5=
EXTT6=
EXTT7=
EXTT8=
EXTT9=
EXTT10=
EXTT11=
EXTT12=
PLAYORDER=
